<svg width="23" height="24" viewBox="0 0 23 24" fill="none" xmlns="http://www.w3.org/2000/svg">
<path d="M7.61889 18.4864C7.60512 18.4864 7.59008 18.4837 7.57505 18.4798C6.06613 17.9999 4.43192 16.2789 4.07726 14.7973C4.0572 14.7136 4.10607 14.6299 4.18502 14.6089C4.26523 14.588 4.34544 14.639 4.36551 14.7214C4.6926 16.088 6.26416 17.737 7.6615 18.183C7.74047 18.2078 7.78432 18.2941 7.76051 18.3765C7.74171 18.4432 7.6828 18.4864 7.61889 18.4864Z" fill="#975500"/>
<path d="M8.33817 20.4387C8.3269 20.4387 8.31563 20.4374 8.30433 20.4348C7.05612 20.1314 5.60488 19.1585 4.32406 17.7644C3.12596 16.462 2.35021 15.0758 2.30009 14.1473C2.29507 14.0623 2.35773 13.9877 2.44045 13.9838C2.52191 13.9786 2.59334 14.044 2.5971 14.1303C2.64222 14.9751 3.40418 16.3168 4.53836 17.55C5.78031 18.9022 7.17767 19.8424 8.37201 20.1327C8.45222 20.1524 8.50236 20.2361 8.48356 20.3197C8.46725 20.3903 8.40584 20.4387 8.33817 20.4387Z" fill="#975500"/>
<path d="M14.7362 6.85018C14.6698 6.85018 14.6096 6.80443 14.5921 6.7351C14.3828 5.90602 13.4316 4.71598 12.5656 4.48321C12.4867 4.46227 12.4378 4.37728 12.4591 4.29358C12.4804 4.20988 12.5606 4.1602 12.6408 4.18243C13.6158 4.44529 14.646 5.72815 14.8804 6.65665C14.9017 6.73903 14.854 6.82402 14.7738 6.84625C14.7613 6.84889 14.7488 6.85018 14.7362 6.85018Z" fill="#975500"/>
<path d="M16.612 7.12606C16.5456 7.12606 16.4854 7.07899 16.4679 7.00966C15.9102 4.71853 13.8248 2.93087 12.6342 2.70856C12.5528 2.69287 12.5001 2.6131 12.5139 2.5281C12.5289 2.44309 12.6054 2.38817 12.6868 2.40255C13.984 2.64579 16.1596 4.48837 16.7561 6.9325C16.7762 7.0162 16.7285 7.0999 16.6483 7.12084C16.6358 7.12474 16.6245 7.12606 16.612 7.12606Z" fill="#975500"/>
<path d="M12.909 11.1971C13.1483 11.473 13.3639 11.8352 13.2724 11.9307C13.1809 12.0262 12.9002 11.8535 12.6859 11.6286C12.4716 11.405 11.959 13.7851 11.9089 13.9054C11.8713 13.9956 11.2748 14.7096 10.9627 15.3883C10.8587 15.6146 10.8737 16.2972 10.8349 16.3377C10.6782 16.5012 10.479 16.4842 10.0491 16.088C9.61922 15.6917 9.39615 18.0521 9.90873 18.4249C10.7847 19.063 12.5368 21.5987 14.8515 21.5987C17.5296 21.5987 20.0098 18.6838 20.0098 16.5443C20.0098 14.4049 19.4083 13.5941 19.4484 11.8012C19.4809 10.283 20.5399 9.55849 20.5399 8.80003C20.5399 8.16184 19.6313 8.00623 19.3331 8.00623C18.8042 8.00623 17.4482 8.71372 17.4482 10.5759C17.4482 11.3004 17.2502 11.9555 16.5396 11.9555C15.829 11.9555 15.0357 10.9382 14.5557 10.1444" fill="#F9DEC3"/>
<path d="M20.5388 8.80004C20.5388 8.45351 20.2693 8.24948 19.9761 8.1344C20.3282 9.35189 18.5424 9.40421 18.5424 13.5523C18.5424 17.7004 16.2276 18.9074 15.2689 19.1154C14.3102 19.322 12.6208 19.3821 11.335 17.7357C10.9403 17.2296 10.4051 16.6804 9.80984 16.1612C9.55794 16.5993 9.50406 18.1307 9.90886 18.4249C10.7849 19.0631 12.5369 21.5987 14.8516 21.5987C17.5298 21.5987 20.0099 18.6838 20.0099 16.5444C20.0099 14.4049 19.4084 13.5942 19.4485 11.8013C19.4811 10.283 20.5388 9.55853 20.5388 8.80004Z" fill="#F9DEC3"/>
<path d="M10.049 16.088C9.61917 15.6917 8.60277 14.5619 7.94109 14.0087C7.27938 13.4568 6.70162 13.4634 6.30435 14.0728C5.90708 14.6822 7.06508 15.7519 7.32949 16.0278C7.73429 16.4502 9.39607 18.0522 9.90865 18.4262" fill="#F9DEC3"/>
<path d="M11.9091 13.9053C11.8589 14.0256 11.5218 14.1093 10.8513 13.3482C10.3388 12.7662 8.96647 11.0937 8.15687 10.3352C7.34727 9.5767 6.71816 9.26545 6.18927 9.66301C5.66042 10.0605 5.9612 10.887 6.55273 11.5775C7.28462 12.4314 8.12679 13.3024 8.93263 14.1393C9.563 14.7932 10.9904 16.1755 10.8338 16.3389" fill="#F9DEC3"/>
<path d="M8.93358 14.1381C9.52888 14.7554 10.8323 16.0199 10.846 16.2985C11.034 15.9925 10.6906 15.0823 10.3272 14.7632C8.22676 12.918 6.19779 9.94294 5.93961 10.0319C5.82933 10.4647 6.10881 11.0584 6.55245 11.5776C7.28434 12.4302 8.12651 13.3025 8.93358 14.1381Z" fill="#F9DEC3"/>
<path d="M14.5546 10.1457C14.0747 9.35191 12.1071 6.79924 11.6283 6.07477C11.1483 5.35027 10.5042 5.35026 10.058 5.67852C9.61188 6.00675 9.47903 6.66193 10.4841 8.05465C11.1183 8.93344 11.6446 9.7416 12.9104 11.1984L14.3817 11.0912L14.5546 10.1457Z" fill="#F9DEC3"/>
<path d="M12.6858 11.6287C12.4715 11.4051 10.5703 9.0538 10.1405 8.54902C9.33466 7.60483 8.31326 5.58178 7.09512 6.4828C6.45472 6.9562 6.80187 7.64275 6.98357 7.91869C7.1653 8.19463 9.5289 11.0415 9.76074 11.2822C9.9926 11.5241 11.9589 13.7838 11.9101 13.9041" fill="#F9DEC3"/>
<path d="M12.9091 11.197C13.1397 11.4624 13.3465 11.8064 13.2814 11.9175C14.0483 11.2741 12.4266 9.38317 11.508 8.24806C10.7974 7.36927 10.6032 6.25117 10.0944 5.65222C10.0818 5.66008 10.0706 5.66923 10.058 5.67706C9.61188 6.00532 9.47903 6.66049 10.4841 8.05321C11.117 8.932 11.6446 9.74149 12.9091 11.197Z" fill="#F9DEC3"/>
<path d="M9.75956 11.2834C9.9914 11.5253 11.9577 13.785 11.9089 13.9053C12.5167 13.0514 10.1606 10.5419 9.02014 9.2734C8.03134 8.1736 7.86214 7.21111 6.89715 6.67102C6.53872 7.12351 6.82321 7.67797 6.98237 7.91989C7.16409 8.19583 9.52895 11.0427 9.75956 11.2834Z" fill="#F9DEC3"/>
<path d="M11.8649 13.9565C11.796 14.001 11.6544 14.0049 11.4351 13.8728C11.598 14.0101 11.7483 14.0624 11.8649 13.9565Z" fill="#F9DEC3"/>
<path d="M19.4719 8.26516C19.977 8.17099 20.066 8.23117 19.9757 8.13439C19.7301 8.03893 19.4669 8.00623 19.3316 8.00623C18.8027 8.00623 17.4467 8.71372 17.4467 10.5759C17.4467 11.3004 17.2487 11.9555 16.5368 11.9555C16.2561 11.9555 15.9641 11.7973 15.6821 11.5567C16.9304 12.9991 17.9091 11.6404 18.0583 10.7093C18.2074 9.77821 17.9906 8.54239 19.4719 8.26516Z" fill="#F9DEC3"/>
<path d="M9.90492 5.81836C9.59664 6.18322 9.60667 6.8371 10.4827 8.05327C11.1168 8.93206 11.6432 9.74023 12.909 11.197C13.1483 11.473 13.3639 11.8352 13.2724 11.9307C13.4842 10.4216 11.4251 8.93728 10.7559 7.79956C10.2258 6.89725 10.1205 6.36499 9.90492 5.81836Z" fill="#F9DEC3"/>
<path d="M9.75937 11.2834C9.99121 11.5253 11.9575 13.785 11.9087 13.9053C12.3423 13.5823 12.0465 13.0789 11.376 12.3792C10.0012 10.9447 8.08755 9.01708 7.31806 7.42951C7.24538 7.27912 7.11002 7.16797 6.95086 7.14703C6.53603 7.09081 6.84435 7.70935 6.98344 7.91989C7.1639 8.19583 9.52876 11.0427 9.75937 11.2834Z" fill="#F9DEC3"/>
<path d="M6.55273 11.5775C7.28462 12.4315 8.12679 13.3024 8.93262 14.1394C9.563 14.7932 10.9904 16.1755 10.8338 16.3389C11.7186 15.5621 7.6092 12.7545 5.93866 10.0331C5.82961 10.4633 6.10909 11.0584 6.55273 11.5775Z" fill="#F9DEC3"/>
<path d="M10.6529 16.4934C10.7368 16.4594 10.7807 16.4188 10.7945 16.3744C10.6428 16.496 10.4436 16.4528 10.0488 16.088C9.61895 15.6917 8.60258 14.5619 7.94087 14.0087C7.65012 13.7668 7.37567 13.6321 7.125 13.6085C7.48343 13.8426 7.31676 13.9263 8.11383 14.5645C8.54243 14.9071 10.1065 16.717 10.6529 16.4934Z" fill="#F9DEC3"/>
<path d="M9.61147 12.3532C10.1917 13.0908 11.3246 14.3082 11.8334 13.9722C11.6931 14.0219 11.3735 13.9408 10.8521 13.3484C10.3396 12.7665 8.96729 11.0939 8.15769 10.3354C7.50225 9.72077 6.96463 9.40037 6.50342 9.51152C7.84564 9.97184 9.06128 11.6562 9.61147 12.3532Z" fill="#F9DEC3"/>
<path d="M10.2395 9.1792C11.1656 10.2306 12.5404 12.3164 13.2372 11.9516C13.1232 11.9882 12.8775 11.83 12.6858 11.6286C12.4715 11.405 10.5704 9.05368 10.1405 8.5489C9.58156 7.89502 8.92108 6.72331 8.16162 6.36499C8.92735 6.99532 9.48881 8.32789 10.2395 9.1792Z" fill="#F9DEC3"/>
<path d="M15.6822 11.558C15.6835 11.558 15.6835 11.558 15.6822 11.558C15.2498 11.1892 14.8438 10.6256 14.5531 10.1456C14.0743 9.35181 12.1068 6.79914 11.628 6.07467C11.4814 5.85366 11.321 5.70066 11.1543 5.60388C11.3774 5.93865 11.5039 6.41598 12.009 7.00707C12.8186 7.95516 13.8776 9.66306 14.241 10.2502C14.6032 10.8348 15.1897 12.0719 15.6822 11.558Z" fill="#F9DEC3"/>
<path d="M18.3343 19.9772C18.0335 19.2135 17.5937 18.7479 16.9583 19.1847C15.225 20.3761 13.2312 19.9733 10.7309 17.8652C8.50144 15.9834 7.34845 14.6391 6.26317 14.1526C6.00249 14.7711 7.07527 15.7637 7.32842 16.0279C7.73322 16.4503 9.39499 18.0522 9.90758 18.4262C10.7836 19.0644 12.5356 21.6001 14.8503 21.6001C16.1449 21.5988 17.3906 20.92 18.3343 19.9772Z" fill="#F9DEC3"/>
<path d="M19.447 11.8012C19.4796 10.283 20.5386 9.55851 20.5386 8.80002C20.5386 8.5764 20.4271 8.41296 20.2691 8.29395C20.4621 8.88504 20.0022 9.40944 19.3154 10.3013C18.571 11.2677 18.4069 12.7677 18.9182 14.2689C19.4307 15.7702 18.7853 17.8403 17.7439 18.4955C16.7024 19.1507 15.3189 22.0316 11.3574 18.7767L11.3549 18.774C11.113 18.54 10.8736 18.332 10.6318 18.1751C8.95871 17.0936 8.00499 16.1207 7.28437 15.3034C7.14277 15.1425 6.76178 14.5266 6.30811 14.7292C6.53494 15.2654 7.14528 15.8369 7.32824 16.0278C7.73304 16.4502 9.39482 18.0522 9.9074 18.4262C9.97382 18.4746 10.0465 18.5347 10.1229 18.604C10.143 18.6223 10.163 18.6406 10.1831 18.6589C10.1881 18.6642 10.1944 18.6694 10.1994 18.6733C10.2119 18.6851 10.2257 18.6982 10.2383 18.71C10.2408 18.7126 10.2445 18.7152 10.247 18.7191C10.7671 19.2121 11.4827 20.0281 12.36 20.665L12.3612 20.6663C12.4377 20.7226 12.5166 20.7775 12.5956 20.8298L12.5994 20.8324C12.6783 20.8847 12.7585 20.9357 12.8387 20.9841L12.8412 20.9854C13.4478 21.349 14.1208 21.6 14.8477 21.6C17.5258 21.6 20.006 18.6851 20.006 16.5457C20.006 14.4062 19.4082 13.5955 19.447 11.8012Z" fill="#F9DEC3"/>
</svg>
